<svg height="512" viewBox="0 0 60 60" width="512" xmlns="http://www.w3.org/2000/svg"><g id="Page-1" fill="none" fill-rule="evenodd"><g id="004---Car-Road-Trip" fill-rule="nonzero" transform="translate(-1)"><path id="Shape" d="m60 48v10c0 .5522847-.4477153 1-1 1h-56c-.55228475 0-1-.4477153-1-1v-10c0-.5522847.44771525-1 1-1h14.77c-.4970501.547345-.7716714 1.2606472-.77 2v2c0 .5522847.4477153 1 1 1h2c0 1.1045695.8954305 2 2 2s2-.8954305 2-2h7c0 1.1045695.8954305 2 2 2s2-.8954305 2-2h2c.5522847 0 1-.4477153 1-1v-4h21c.5522847 0 1 .4477153 1 1z" fill="#7f8e94"/><path id="Shape" d="m59 47h-3c.5522847 0 1 .4477153 1 1v10c0 .5522847-.4477153 1-1 1h3c.5522847 0 1-.4477153 1-1v-10c0-.5522847-.4477153-1-1-1z" fill="#545c60"/><path id="Shape" d="m8 54h-2c-.55228475 0-1-.4477153-1-1s.44771525-1 1-1h2c.55228475 0 1 .4477153 1 1s-.44771525 1-1 1z" fill="#f5f5f5"/><path id="Shape" d="m14 54h-2c-.5522847 0-1-.4477153-1-1s.4477153-1 1-1h2c.5522847 0 1 .4477153 1 1s-.4477153 1-1 1z" fill="#f5f5f5"/><path id="Shape" d="m38 46h-8v-5h3.04c.6066233.0013943 1.1800676.2770886 1.56.75z" fill="#3f51b5"/><path id="Shape" d="m34.6 41.75c-.3799324-.4729114-.9533767-.7486057-1.56-.75h-3c.6066233.0013943 1.1800676.2770886 1.56.75l3.4 4.25h3z" fill="#283593"/><path id="Shape" d="m30 41v5h-8l3.4-4.25c.3799324-.4729114.9533767-.7486057 1.56-.75z" fill="#02a9f4"/><path id="Shape" d="m38 46v5c0 .5522847-.4477153 1-1 1h-2c0-1.1045695-.8954305-2-2-2s-2 .8954305-2 2h-7c0-1.1045695-.8954305-2-2-2s-2 .8954305-2 2h-2c-.5522847 0-1-.4477153-1-1v-2c.0060328-1.6543489 1.3456511-2.9939672 3-3z" fill="#f44335"/><path id="Shape" d="m35 46v5c-.0019885.144377-.036151.2864933-.1.416.0628401.188448.0965614.3853805.1.584h2c.5522847 0 1-.4477153 1-1v-5z" fill="#c81e1e"/><g fill="#f5f5f5"><path id="Shape" d="m44 54h-2c-.5522847 0-1-.4477153-1-1s.4477153-1 1-1h2c.5522847 0 1 .4477153 1 1s-.4477153 1-1 1z"/><path id="Shape" d="m50 54h-2c-.5522847 0-1-.4477153-1-1s.4477153-1 1-1h2c.5522847 0 1 .4477153 1 1s-.4477153 1-1 1z"/><path id="Shape" d="m56 54h-2c-.5522847 0-1-.4477153-1-1s.4477153-1 1-1h2c.5522847 0 1 .4477153 1 1s-.4477153 1-1 1z"/><path id="Shape" d="m28.38 23.98-3.13 2.5c-.7289322.5899185-1.7710678.5899185-2.5 0l-3.13-2.5 2.82-4.16c.353429-.5133249.9367709-.8199255 1.56-.8199255s1.206571.3066006 1.56.8199255z"/></g><path id="Shape" d="m25.56 19.82c-.3425983-.5010446-.9057142-.8062189-1.5125399-.8197039-.6068258-.013485-1.1829423.266373-1.5474601.7517039.018.024.043.043.06.068l2.82 4.16-2.88 2.3.25.2c.7289322.5899185 1.7710678.5899185 2.5 0l3.13-2.5z" fill="#cfd8dc"/><path id="Shape" d="m38 47v-1l-3.4-4.25c-.3799324-.4729114-.9533767-.7486057-1.56-.75h-6.08c-.6066233.0013943-1.1800676.2770886-1.56.75l-3.4 4.25h-2c-.8532257-.0060548-1.6669944.3588639-2.23 1h-13.77l15.62-23.02 3.13 2.5c.7289322.5899185 1.7710678.5899185 2.5 0l3.13-2.5 1.05 1.54 14.57 21.48z" fill="#a0522d"/><path id="Shape" d="m29.43 25.52-1.05-1.54-1.942 1.551 14.562 21.469h3z" fill="#783e22"/><path id="Shape" d="m39.65 20.79-2.47 1.82c-.7049303.5184788-1.6650697.5184788-2.37 0l-2.35-1.73 1.98-3.03c.3433375-.5216193.9223897-.8397232 1.5467832-.8497295s1.2133413.2893796 1.5732168.7997295z" fill="#f5f5f5"/><path id="Shape" d="m37.56 17.8c-.345123-.4936384-.9064828-.7913038-1.5087392-.8000207s-1.1719958.2725773-1.5312608.7560207c.012.016.029.028.04.044l2.09 2.99-2.155 1.588.315.232c.7049303.5184788 1.6650697.5184788 2.37 0l2.47-1.82z" fill="#cfd8dc"/><path id="Shape" d="m58 47h-14l-14.57-21.48 3.03-4.64 2.35 1.73c.7049303.5184788 1.6650697.5184788 2.37 0l2.47-1.82z" fill="#a0522d"/><path id="Shape" d="m39.65 20.79-1.979 1.458 17.329 24.752h3z" fill="#783e22"/><path id="Shape" d="m57 10c1.6568542-.00000002 3-1.34314577 3-3s-1.3431458-2.99999998-3-3c-.047 0-.091.012-.137.014-.4565602-1.80826012-2.1045859-3.05922315-3.969014-3.01275019-1.8644281.04647297-3.4480826 1.37798924-3.813986 3.20675019-1.125095-.44224259-2.4057033-.16598161-3.2484141.70076855-.8427107.86675015-1.0828523 2.15462047-.6091474 3.26683487.4737049 1.11221439 1.5686911 1.83143848 2.7775615 1.82439658z" fill="#02a9f4"/><path id="Shape" d="m57 4c-.047 0-.091.012-.137.014-.2759682-1.12161874-1.0276648-2.06695926-2.0582806-2.58851275-1.0306159-.5215535-2.2375194-.5673822-3.3047194-.12548725 1.1731689.47871512 2.0508809 1.4839865 2.367 2.711.046 0 .09-.014.137-.014 1.6568542 0 3 1.34314575 3 3s-1.3431458 3-3 3h3c1.6568542 0 3-1.34314575 3-3s-1.3431458-3-3-3z" fill="#0377bc"/><path id="Shape" d="m14 16c1.6568542 0 3-1.3431458 3-3s-1.3431458-3-3-3c-.047 0-.091.012-.137.014-.4565602-1.80826012-2.1045859-3.05922315-3.96901401-3.01275019-1.8644281.04647297-3.44808262 1.37798924-3.81398599 3.20675019-1.12509498-.44224259-2.40570335-.1659816-3.24841408.7007685-.84271074.8667502-1.0828523 2.1546205-.60914739 3.2668349.47370492 1.1122144 1.56869108 1.8314385 2.77756147 1.8243966z" fill="#02a9f4"/><circle id="Oval" cx="22" cy="52" fill="#3f51b5" r="2"/><circle id="Oval" cx="33" cy="52" fill="#3f51b5" r="2"/><path id="Shape" d="m59 46h-.479l-20.142-28.774c-.5496804-.7836988-1.4519699-1.2441065-2.4091077-1.2292858-.9571378.0148208-1.8447398.5029438-2.3698923 1.3032858l-4.189 6.42-3.024-4.457c-.5375565-.7901718-1.4313126-1.2631158-2.387-1.2631158s-1.8494435.472944-2.387 1.2631158l-18.143 26.737h-.47c-1.1045695 0-2 .8954305-2 2v10c0 1.1045695.8954305 2 2 2h56c1.1045695 0 2-.8954305 2-2v-10c0-1.1045695-.8954305-2-2-2zm-23.726-27.6c.17096-.2305409.4391587-.368776.7261192-.3742568.2869606-.0054809.5602422.1224122.7398808.3462568l1.533 2.189-1.689 1.245c-.3508898.2595367-.8301102.2595367-1.181 0l-1.588-1.169zm-2.554 3.913 1.5 1.1c.5157078.3801816 1.1393041.5858282 1.78.587.6389049.0000764 1.260756-.2061551 1.773-.588l1.647-1.212 16.659 23.8h-11.549l-13.9-20.486zm-9.452-1.927c.1739984-.2285454.4447571-.3627065.732-.3627065s.5580016.1341611.732.3627065l2.3 3.39-2.41 1.924c-.3627952.2975445-.8852048.2975445-1.248 0l-2.407-1.923zm-3.427 5.05 2.281 1.822c1.0963723.878569 2.6556277.878569 3.752 0l2.285-1.825 13.954 20.567h-3.113c-.0015384-.1238402-.0263002-.2462922-.073-.361-.0183036-.0389158-.0390102-.0766554-.062-.113-.0240519-.0524304-.0521362-.1029153-.084-.151l-3.4-4.25c-.5682418-.7125485-1.4306159-1.1267974-2.342-1.125h-6.078c-.9116202-.0018499-1.7741462.4128402-2.342 1.126l-3.099 3.874h-1.52c-.9652832.0036267-1.8961081.3591748-2.618 1h-11.495zm15.975 25.564c-.4174114-1.1981296-1.5472421-2.0009455-2.816-2.0009455s-2.3985886.8028159-2.816 2.0009455h-5.368c-.4174114-1.1981296-1.5472421-2.0009455-2.816-2.0009455s-2.3985886.8028159-2.816 2.0009455h-1.184v-2c0-1.1045695.8954305-2 2-2h17v4zm-1.816 1c0 .5522847-.4477153 1-1 1s-1-.4477153-1-1 .4477153-1 1-1 1 .4477153 1 1zm-11 0c0 .5522847-.4477153 1-1 1s-1-.4477153-1-1 .4477153-1 1-1 1 .4477153 1 1zm10.039-10c.3037783-.000114.5911385.1378631.781.375l2.1 2.625h-4.92v-3.0000001zm-4.039 3h-4.92l2.1-2.624c.1896629-.2375116.4770531-.375871.781-.376h2.039zm30 13h-56v-10h13.142c-.0900507.3258584-.1377763.6619541-.142 1v2c0 1.1045695.8954305 2 2 2h1.184c.4174114 1.1981296 1.5472421 2.0009455 2.816 2.0009455s2.3985886-.8028159 2.816-2.0009455h5.368c.4174114 1.1981296 1.5472421 2.0009455 2.816 2.0009455s2.3985886-.8028159 2.816-2.0009455h1.184c1.1045695 0 2-.8954305 2-2v-3h20z" fill="#000"/><path id="Shape" d="m57.588 3.043c-.7801158-1.84088083-2.5837126-3.03839706-4.583063-3.04297074-1.9993504-.00457367-3.8084071 1.18467831-4.596937 3.02197074-1.472304-.155005-2.9098222.51585458-3.7367114 1.74384476-.8268891 1.22799018-.9079103 2.81227133-.2106078 4.11820964.6973024 1.3059383 2.0588836 2.1199456 3.5393192 2.1159456h9c2.0959556.0016093 3.83773-1.61495708 3.9921942-3.70521382.1544641-2.09025673-1.3307689-3.94528991-3.4041942-4.25178618zm-.588 5.957h-9c-.807469.00744121-1.5401966-.47142286-1.8575268-1.2139611s-.1570001-1.60305834.4064505-2.18149154 1.4194677-.76128599 2.1700763-.46354736c.2749631.10634825.5828423.08594761.8413693-.05575066.2585271-.14169828.4413551-.3902535.4996307-.67924934.2733332-1.37169466 1.4607825-2.37080926 2.8590134-2.40556131 1.3982309-.03475206 2.6338479.90413892 2.9749866 2.26056131.1168417.45815514.5385982.7718652 1.011.752.054 0 .107-.009.095-.013 1.1045695 0 2 .8954305 2 2s-.8954305 2-2 2z" fill="#000"/><path id="Shape" d="m5 17h9c2.0959556.0016093 3.83773-1.6149571 3.9921942-3.7052138.1544641-2.0902567-1.3307689-3.94528993-3.4041942-4.2517862-.7801158-1.84088083-2.5837126-3.03839706-4.583063-3.04297074-1.99935036-.00457367-3.80840709 1.18467831-4.596937 3.02197074-1.47230398-.155005-2.9098222.51585458-3.73671136 1.7438448-.82688916 1.2279901-.90791031 2.8122713-.21060786 4.1182096.69730244 1.3059383 2.05888362 2.1199456 3.53931922 2.1159456zm0-6c.24634202.0019539.4901657.0497691.719.141.27496308.1063482.58284226.0859476.84136932-.0557507.25852706-.1416982.44135508-.3902535.49963068-.6792493.27333324-1.37169466 1.46078251-2.37080926 2.85901339-2.40556131 1.39823091-.03475206 2.63384791.90413892 2.97498661 2.26056131.119839.4561384.5396677.7684145 1.011.752.054 0 .107-.009.1-.013 1.1045695 0 2 .8954305 2 2s-.8954305 2-2 2h-9.005c-1.1045695 0-2-.8954305-2-2s.8954305-2 2-2z" fill="#000"/></g></g></svg>