<?xml version="1.0" encoding="iso-8859-1"?>
<!-- Generator: Adobe Illustrator 19.0.0, SVG Export Plug-In . SVG Version: 6.00 Build 0)  -->
<svg version="1.1" id="Layer_1" xmlns="http://www.w3.org/2000/svg" xmlns:xlink="http://www.w3.org/1999/xlink" x="0px" y="0px"
	 viewBox="0 0 512 512" style="enable-background:new 0 0 512 512;" xml:space="preserve">
<path style="fill:#91DC5A;" d="M375.977,331.368h-89.342v49.218h-61.271v-49.218h-89.342c-25.463,0-46.512-19.23-49.37-43.94
	l0.01,174.317c0,21.602,17.511,39.114,39.114,39.114h260.447c21.602,0,39.114-17.512,39.114-39.114l0.011-174.32
	C422.49,312.135,401.44,331.368,375.977,331.368z"/>
<g>
	<path style="fill:#057091;" d="M50.692,287.889c-12.661,0-22.925,10.264-22.925,22.925v60.574v84.266
		c0,12.661,10.263,22.925,22.925,22.925h35.936l0.026-190.691H50.692z"/>
	<path style="fill:#057091;" d="M461.308,287.889h-35.96V478.58h35.96c12.661,0,22.925-10.264,22.925-22.925v-84.266v-60.574
		C484.233,298.152,473.969,287.889,461.308,287.889z"/>
	<path style="fill:#057091;" d="M415.195,175.655H96.805c-25.113,0-45.471-20.357-45.471-45.471l0,0
		c0-25.113,20.357-45.471,45.471-45.471h318.389c25.113,0,45.471,20.357,45.471,45.471l0,0
		C460.665,155.297,440.307,175.655,415.195,175.655z"/>
</g>
<g>
	<path style="fill:#CC7400;" d="M96.805,84.714h62.609V11.14H86.32v74.803C89.688,85.147,93.195,84.714,96.805,84.714z"/>
	<path style="fill:#CC7400;" d="M415.195,84.714c3.611,0,7.117,0.433,10.485,1.229V11.14h-73.093v73.574H415.195z"/>
</g>
<path d="M387.586,455.23c-0.724,0-1.459-0.067-2.172-0.212c-0.713-0.145-1.415-0.368-2.094-0.646
	c-0.668-0.279-1.315-0.624-1.916-1.025c-0.613-0.401-1.181-0.869-1.693-1.381c-0.512-0.512-0.98-1.081-1.393-1.693
	c-0.401-0.602-0.735-1.248-1.014-1.927c-0.279-0.668-0.501-1.37-0.635-2.083c-0.145-0.713-0.223-1.448-0.223-2.172
	c0-0.724,0.078-1.459,0.223-2.172c0.134-0.713,0.356-1.415,0.635-2.094c0.279-0.668,0.613-1.315,1.014-1.916
	c0.412-0.613,0.88-1.181,1.393-1.693c0.512-0.512,1.081-0.98,1.693-1.381c0.602-0.401,1.248-0.746,1.916-1.025
	c0.68-0.279,1.381-0.501,2.094-0.635c3.609-0.735,7.464,0.457,10.048,3.041c0.512,0.512,0.98,1.081,1.381,1.693
	c0.401,0.602,0.746,1.248,1.025,1.916c0.279,0.68,0.49,1.381,0.635,2.094c0.145,0.713,0.223,1.448,0.223,2.172
	c0,0.724-0.078,1.459-0.223,2.172c-0.145,0.713-0.356,1.415-0.635,2.083c-0.279,0.68-0.624,1.326-1.025,1.927
	c-0.401,0.613-0.869,1.181-1.381,1.693C393.39,454.038,390.517,455.23,387.586,455.23z"/>
<path d="M108.962,142.761c-0.735,0-1.459-0.078-2.183-0.223c-0.713-0.145-1.404-0.356-2.083-0.635
	c-0.668-0.279-1.315-0.624-1.916-1.025c-0.613-0.401-1.181-0.869-1.693-1.381c-0.524-0.512-0.98-1.092-1.393-1.693
	c-0.401-0.613-0.746-1.259-1.025-1.927c-0.279-0.668-0.49-1.37-0.635-2.083c-0.145-0.713-0.212-1.448-0.212-2.172
	c0-0.735,0.067-1.459,0.212-2.183c0.145-0.713,0.356-1.404,0.635-2.083c0.279-0.668,0.624-1.315,1.025-1.916
	c0.412-0.613,0.869-1.181,1.393-1.693c0.512-0.524,1.081-0.98,1.693-1.393c0.602-0.401,1.248-0.746,1.916-1.025
	c0.68-0.279,1.37-0.49,2.083-0.635c1.437-0.29,2.919-0.29,4.356,0c0.713,0.145,1.415,0.356,2.083,0.635
	c0.68,0.279,1.326,0.624,1.927,1.025c0.613,0.412,1.181,0.869,1.693,1.393c0.512,0.512,0.98,1.081,1.381,1.693
	c0.401,0.602,0.746,1.248,1.025,1.916c0.279,0.68,0.49,1.37,0.635,2.083c0.145,0.724,0.223,1.448,0.223,2.183
	c0,0.724-0.078,1.459-0.223,2.172c-0.145,0.713-0.356,1.415-0.635,2.083c-0.279,0.668-0.624,1.315-1.025,1.927
	c-0.401,0.602-0.869,1.181-1.381,1.693c-0.512,0.512-1.081,0.98-1.693,1.381c-0.602,0.401-1.248,0.746-1.927,1.025
	c-0.668,0.279-1.37,0.49-2.083,0.635C110.421,142.683,109.685,142.761,108.962,142.761z"/>
<rect x="225.365" y="279.929" style="fill:#FED159;" width="61.271" height="100.662"/>
<path style="fill:#56AC3A;" d="M415.195,175.655H96.805c-3.611,0-7.117-0.433-10.485-1.229v107.24
	c0,27.406,22.296,49.702,49.702,49.702h89.343v-51.445h61.271v51.445h89.342c27.406,0,49.702-22.296,49.702-49.702v-107.24
	C422.312,175.222,418.804,175.655,415.195,175.655z"/>
<path d="M461.308,276.748h-24.489v-94.255c20.516-8.513,34.986-28.749,34.986-52.308s-14.47-43.795-34.986-52.308V11.14
	c0-6.153-4.987-11.14-11.14-11.14h-73.093c-6.153,0-11.14,4.987-11.14,11.14v62.434H170.554V11.14c0-6.153-4.987-11.14-11.14-11.14
	H86.32c-6.153,0-11.14,4.987-11.14,11.14v66.736c-20.516,8.513-34.986,28.749-34.986,52.308s14.47,43.795,34.986,52.308v94.255
	H50.692c-18.783,0-34.065,15.281-34.065,34.065v144.841c0,18.783,15.282,34.065,34.065,34.065H84.05
	c9.031,13.427,24.363,22.28,41.726,22.28h260.447c17.363,0,32.696-8.853,41.726-22.28h33.358c18.783,0,34.065-15.281,34.065-34.065
	V310.813C495.373,292.029,480.092,276.748,461.308,276.748z M389.194,317.894c-0.539,0.197-1.085,0.381-1.636,0.555
	c-0.089,0.028-0.178,0.056-0.267,0.084c-0.48,0.148-0.965,0.284-1.453,0.413c-0.142,0.037-0.283,0.075-0.424,0.11
	c-0.441,0.111-0.887,0.213-1.333,0.309c-0.179,0.038-0.359,0.078-0.539,0.115c-0.418,0.084-0.839,0.156-1.261,0.226
	c-0.204,0.033-0.408,0.07-0.613,0.1c-0.412,0.061-0.827,0.11-1.242,0.158c-0.214,0.025-0.427,0.053-0.642,0.075
	c-0.433,0.042-0.871,0.071-1.309,0.1c-0.196,0.012-0.391,0.031-0.588,0.041c-0.633,0.031-1.269,0.048-1.909,0.048h-78.2v-40.306
	c0-6.153-4.987-11.14-11.14-11.14h-61.271c-6.153,0-11.14,4.987-11.14,11.14v40.306h-78.201c-0.641,0-1.277-0.018-1.909-0.048
	c-0.197-0.01-0.392-0.029-0.588-0.041c-0.438-0.028-0.875-0.057-1.308-0.1c-0.215-0.021-0.428-0.05-0.643-0.076
	c-0.416-0.048-0.83-0.097-1.241-0.158c-0.205-0.03-0.409-0.067-0.613-0.1c-0.422-0.07-0.844-0.143-1.262-0.226
	c-0.179-0.036-0.358-0.076-0.537-0.114c-0.448-0.096-0.895-0.197-1.337-0.31c-0.14-0.036-0.28-0.072-0.419-0.109
	c-0.49-0.13-0.978-0.267-1.46-0.415c-0.087-0.027-0.173-0.053-0.258-0.08c-0.554-0.175-1.103-0.36-1.646-0.558
	c-0.012-0.004-0.025-0.009-0.037-0.013c-12.382-4.549-21.805-15.276-24.512-28.427c-0.01-0.049-0.018-0.098-0.028-0.147
	c-0.109-0.541-0.207-1.086-0.293-1.635c-0.031-0.197-0.055-0.396-0.082-0.594c-0.25-1.769-0.387-3.573-0.387-5.41v-94.871h317.078
	v94.871c0,1.827-0.137,3.622-0.383,5.382c-0.029,0.209-0.055,0.42-0.088,0.629c-0.084,0.53-0.178,1.057-0.283,1.58
	c-0.013,0.068-0.025,0.137-0.038,0.205c-2.709,13.145-12.128,23.868-24.506,28.416C389.225,317.883,389.209,317.889,389.194,317.894
	z M236.505,331.368v-40.306h38.99v40.306v38.077h-38.99V331.368z M363.726,22.28h50.812v51.294h-50.812V22.28z M97.46,22.28h50.812
	v51.294H97.46V22.28z M62.475,130.185c0-16.238,11.335-29.869,26.507-33.42c0.586-0.137,1.175-0.258,1.767-0.364
	c0.063-0.011,0.126-0.023,0.189-0.033c0.573-0.099,1.146-0.183,1.721-0.253c0.087-0.011,0.174-0.023,0.261-0.033
	c0.547-0.062,1.095-0.108,1.643-0.145c0.108-0.007,0.215-0.019,0.323-0.025c0.641-0.037,1.281-0.057,1.921-0.057h62.609h193.172
	h62.609c0.639,0,1.28,0.02,1.921,0.057c0.108,0.006,0.215,0.018,0.322,0.025c0.548,0.037,1.096,0.082,1.644,0.145
	c0.087,0.01,0.173,0.022,0.26,0.033c0.575,0.07,1.15,0.154,1.722,0.253c0.064,0.011,0.126,0.022,0.189,0.033
	c0.589,0.106,1.178,0.227,1.762,0.363c12.022,2.813,21.631,11.956,25.104,23.713H145.722c-6.153,0-11.14,4.987-11.14,11.14
	s4.987,11.14,11.14,11.14h301.41c-4.094,10.365-13.089,18.27-24.116,20.85c-0.585,0.136-1.173,0.257-1.762,0.363
	c-0.064,0.011-0.126,0.023-0.189,0.033c-0.573,0.099-1.147,0.183-1.722,0.253c-0.087,0.01-0.173,0.023-0.26,0.033
	c-0.548,0.062-1.096,0.108-1.644,0.145c-0.108,0.007-0.214,0.019-0.322,0.025c-0.641,0.037-1.281,0.057-1.921,0.057H96.805
	c-0.639,0-1.28-0.02-1.921-0.057c-0.108-0.006-0.215-0.018-0.323-0.025c-0.548-0.037-1.096-0.082-1.643-0.145
	c-0.087-0.01-0.174-0.022-0.261-0.033c-0.575-0.07-1.149-0.154-1.721-0.253c-0.063-0.011-0.126-0.022-0.189-0.033
	c-0.59-0.106-1.18-0.227-1.767-0.364C73.81,160.053,62.475,146.422,62.475,130.185z M75.489,467.438H50.692
	c-6.498,0-11.785-5.287-11.785-11.785V310.813c0-6.498,5.287-11.785,11.785-11.785h24.819L75.489,467.438z M414.196,461.746
	c0,15.425-12.549,27.974-27.974,27.974H125.776c-15.425,0-27.973-12.549-27.973-27.974v-6.515h253.02
	c6.153,0,11.14-4.987,11.14-11.14c0-6.153-4.987-11.14-11.14-11.14H97.801L97.796,329.02c6.665,5.38,14.48,9.361,22.984,11.556
	c0.087,0.022,0.176,0.041,0.263,0.064c0.815,0.206,1.636,0.397,2.463,0.57c0.253,0.053,0.509,0.101,0.763,0.15
	c0.671,0.131,1.345,0.253,2.023,0.362c0.319,0.051,0.637,0.1,0.958,0.147c0.634,0.091,1.271,0.172,1.912,0.244
	c0.336,0.038,0.673,0.078,1.012,0.11c0.667,0.064,1.338,0.111,2.011,0.154c0.303,0.019,0.604,0.045,0.908,0.059
	c0.973,0.047,1.948,0.075,2.931,0.075h78.201v38.077c0,6.153,4.987,11.14,11.14,11.14h61.271c6.153,0,11.14-4.987,11.14-11.14
	v-38.077h78.201c0.983,0,1.96-0.028,2.931-0.075c0.304-0.014,0.605-0.04,0.908-0.059c0.673-0.042,1.343-0.089,2.01-0.154
	c0.34-0.032,0.676-0.072,1.014-0.11c0.638-0.071,1.274-0.151,1.906-0.243c0.322-0.047,0.643-0.096,0.964-0.147
	c0.676-0.109,1.347-0.229,2.015-0.361c0.257-0.05,0.516-0.099,0.772-0.153c0.821-0.172,1.635-0.361,2.443-0.566
	c0.095-0.023,0.189-0.045,0.284-0.069c8.502-2.195,16.316-6.176,22.98-11.555L414.196,461.746z M473.093,455.654
	c0,6.498-5.287,11.785-11.785,11.785h-24.821V299.029h24.821c6.498,0,11.785,5.287,11.785,11.785V455.654z"/>
<g>
</g>
<g>
</g>
<g>
</g>
<g>
</g>
<g>
</g>
<g>
</g>
<g>
</g>
<g>
</g>
<g>
</g>
<g>
</g>
<g>
</g>
<g>
</g>
<g>
</g>
<g>
</g>
<g>
</g>
</svg>
