<?xml version="1.0"?>
<svg xmlns="http://www.w3.org/2000/svg" id="Layer_1" data-name="Layer 1" viewBox="0 0 512 512" width="512" height="512"><title>Navigation tarvel Road map</title><path d="M381,278a109.92,109.92,0,1,1-101.56,67.68A110,110,0,0,1,381,278ZM370.13,475.89,453.37,333.8l-160,38.71,61.54,34.46Z" style="fill:#6fe3ff"/><polygon points="453.37 333.8 370.13 475.89 354.91 406.97 453.37 333.8" style="fill:#e48e66"/><polygon points="453.37 333.8 354.91 406.97 293.37 372.51 453.37 333.8" style="fill:#f8ec7d"/><path d="M261,105.41V14L381,64V278a110.038,110.038,0,0,0-101.56,67.68L261,338Zm91.58,142.7a20,20,0,1,0-20,20A20,20,0,0,0,352.58,248.11Z" style="fill:#e48e66"/><circle cx="332.58" cy="248.11" r="20" style="fill:#6fe3ff"/><polygon points="261 105.41 261 338 141 388 141 194.76 141 64 261 14 261 105.41" style="fill:#f8ec7d"/><path d="M141,194.76V388L21,338V14L141,64ZM96.99,222.9a20,20,0,1,0-20,20A19.994,19.994,0,0,0,96.99,222.9Z" style="fill:#e48e66"/><circle cx="76.99" cy="222.9" r="20" style="fill:#6fe3ff"/><path d="M18.692,343.539l120,50c.191.079.384.147.579.206l.053.013a5.8,5.8,0,0,0,.7.155c.071.012.143.023.215.032a5.864,5.864,0,0,0,.712.052c.018,0,.035,0,.053,0a6.013,6.013,0,0,0,.79-.059l.159-.023a6.159,6.159,0,0,0,.769-.171l.008,0q.292-.088.58-.207L261,344.5l10.734,4.47A116.016,116.016,0,1,0,387,272.154V64a6,6,0,0,0-3.692-5.539l-120-50c-.06-.024-.121-.042-.181-.064-.079-.03-.158-.059-.237-.086-.153-.05-.306-.093-.459-.131-.063-.016-.124-.033-.187-.047A5.991,5.991,0,0,0,260.883,8c-.043,0-.085,0-.128.007-.183.007-.365.023-.545.047-.064.008-.127.018-.19.029-.169.028-.336.064-.5.106-.058.015-.115.027-.173.044a6.159,6.159,0,0,0-.646.223l-.007,0L141,57.5,23.308,8.461A6,6,0,0,0,15,14V338A6,6,0,0,0,18.692,343.539ZM255,98.6a19.478,19.478,0,0,1-5.291-2.484,6,6,0,1,0-6.674,9.973A31.4,31.4,0,0,0,255,110.894V334L147,379V201.893a5.992,5.992,0,0,0,3.083-11.576c-1.015-.3-2.047-.551-3.083-.77V68L255,23ZM485,388a104,104,0,1,1-200.023-40.01h0v0A104.016,104.016,0,0,1,485,388ZM375,272.172a115.668,115.668,0,0,0-98.63,65.73L267,334V111.41h8.513a6,6,0,0,0,0-12H267V23L375,68ZM27,23,135,68V188.392a26.456,26.456,0,0,1-11.675-4.75,6,6,0,1,0-7.031,9.724A38.382,38.382,0,0,0,135,200.484V379L27,334Z" style="fill:#63316d"/><path d="M452.924,327.822c-.059,0-.118.01-.177.016a5.926,5.926,0,0,0-.832.141l-159.956,38.7a6,6,0,0,0-1.52,11.067l59.192,33.146,14.64,66.293a6,6,0,0,0,4.925,4.633,5.918,5.918,0,0,0,.935.073,6,6,0,0,0,5.176-2.967l83.217-142.051a5.992,5.992,0,0,0,.377-.762c.022-.051.043-.1.063-.154a6.16,6.16,0,0,0,.236-.743c.007-.028.01-.056.017-.083a6.179,6.179,0,0,0,.112-.689c.007-.062.014-.124.019-.186a6.133,6.133,0,0,0,.013-.767c0-.022,0-.044-.006-.066a6.057,6.057,0,0,0-.092-.72c-.01-.052-.019-.1-.03-.155a6.071,6.071,0,0,0-.212-.765l-.01-.023a6.006,6.006,0,0,0-.307-.694c-.029-.056-.058-.112-.089-.167a5.975,5.975,0,0,0-.428-.675v0l0,0a6.153,6.153,0,0,0-.519-.6c-.046-.047-.092-.092-.138-.136a6.054,6.054,0,0,0-.568-.488l-.027-.022a5.961,5.961,0,0,0-.666-.421c-.049-.027-.1-.052-.149-.078a6,6,0,0,0-.646-.288c-.026-.01-.05-.022-.076-.031a6.206,6.206,0,0,0-.728-.206c-.066-.014-.133-.026-.2-.039a6.012,6.012,0,0,0-.668-.087c-.035,0-.069-.009-.1-.01A6,6,0,0,0,452.924,327.822Zm-26.785,18.739L354.45,399.836l-44.806-25.09ZM372.688,459.652l-11.082-50.183L433.3,356.191Z" style="fill:#63316d"/><path d="M76.99,196.9a26,26,0,1,0,26,26A26.029,26.029,0,0,0,76.99,196.9Zm0,40a14,14,0,1,1,14-14A14.015,14.015,0,0,1,76.99,236.9Z" style="fill:#63316d"/><path d="M306.58,248.11a26,26,0,1,0,26-26A26.03,26.03,0,0,0,306.58,248.11Zm40,0a14,14,0,1,1-14-14A14.015,14.015,0,0,1,346.58,248.11Z" style="fill:#63316d"/><path d="M185.987,171a6,6,0,0,0,8.486,0l10.757-10.757L215.987,171a6,6,0,1,0,8.486-8.485L213.715,151.76,224.473,141a6,6,0,1,0-8.486-8.485L205.23,143.274l-10.757-10.757A6,6,0,0,0,185.987,141l10.758,10.758-10.758,10.757A6,6,0,0,0,185.987,171Z" style="fill:#63316d"/><path d="M174.211,256.561a6,6,0,0,0,1.916,8.266,22.222,22.222,0,0,0,33.1-12.792,6,6,0,1,0-11.545-3.271,10.214,10.214,0,0,1-15.207,5.882A6,6,0,0,0,174.211,256.561Z" style="fill:#63316d"/><path d="M112.25,161.99v-22.5a6,6,0,0,0-12,0v22.5a38.906,38.906,0,0,0,1,8.791,6,6,0,1,0,11.689-2.717A26.847,26.847,0,0,1,112.25,161.99Z" style="fill:#63316d"/><path d="M165.66,227.4v11.585a6,6,0,0,0,12,0V227.4a38.608,38.608,0,0,0-5.97-20.662,6,6,0,0,0-10.143,6.412A26.623,26.623,0,0,1,165.66,227.4Z" style="fill:#63316d"/><path d="M76.99,186.16a6,6,0,0,0,6-6v-30a6,6,0,0,0-12,0v30A6,6,0,0,0,76.99,186.16Z" style="fill:#63316d"/><path d="M76.153,132.648a5.993,5.993,0,0,0,6.977-4.83,8.618,8.618,0,0,1,8.49-7.068,8.506,8.506,0,0,1,5.282,1.81,6,6,0,0,0,7.378-9.464,20.627,20.627,0,0,0-32.956,12.575A6,6,0,0,0,76.153,132.648Z" style="fill:#63316d"/><path d="M204.07,191.025a6,6,0,0,0-6,6v30a6,6,0,1,0,12,0v-30A6,6,0,0,0,204.07,191.025Z" style="fill:#63316d"/><path d="M217.235,71.394A8.888,8.888,0,0,1,228.99,79.8c0,.7.024,1.417.07,2.116a6,6,0,0,0,5.981,5.6c.134,0,.269,0,.405-.013a6,6,0,0,0,5.588-6.386q-.043-.654-.044-1.318a20.892,20.892,0,0,0-27.635-19.762,6,6,0,1,0,3.88,11.356Z" style="fill:#63316d"/><path d="M330.529,129.117a6,6,0,0,0-7.861,3.2,8.871,8.871,0,0,1-8.188,5.437H301.928a6,6,0,0,0,0,12H314.48a20.849,20.849,0,0,0,19.245-12.772A6,6,0,0,0,330.529,129.117Z" style="fill:#63316d"/><path d="M278.744,155.062a21.088,21.088,0,0,0-.3,3.568v7.39a20.763,20.763,0,0,0,16.248,20.363,6,6,0,0,0,2.653-11.7,8.937,8.937,0,0,1-6.9-8.66v-7.392a8.9,8.9,0,0,1,.13-1.525,6,6,0,0,0-11.826-2.041Z" style="fill:#63316d"/><path d="M298.944,111.41H314.48a8.892,8.892,0,0,1,7.338,3.878,6,6,0,0,0,9.9-6.777,20.885,20.885,0,0,0-17.241-9.1H298.944a6,6,0,0,0,0,12Z" style="fill:#63316d"/><path d="M321.626,181.847a6,6,0,1,0-6.823,9.871,27.284,27.284,0,0,1,11.72,20.667A6,6,0,0,0,332.505,218q.194,0,.39-.012a6,6,0,0,0,5.6-6.371,39.286,39.286,0,0,0-16.873-29.772Z" style="fill:#63316d"/><path d="M205.23,120.75a6,6,0,0,0,6-6v-30a6,6,0,0,0-12,0v30A6,6,0,0,0,205.23,120.75Z" style="fill:#63316d"/></svg>
